<svg xmlns="http://www.w3.org/2000/svg" width="45.5" height="29.87" viewBox="0 0 45.5 29.87">
  <defs>
    <style>
      .cls-1 {
        fill: #fff;
        fill-rule: evenodd;
      }
    </style>
  </defs>
  <path id="AMEX" class="cls-1" d="M627.547,3963.16c6.326,0,12.651.05,18.976-.03a3.741,3.741,0,0,1,3.777,3.77q-0.1,11.13,0,22.25a3.758,3.758,0,0,1-3.838,3.84c-12.63-.06-25.26-0.02-37.889-0.03a3.492,3.492,0,0,1-3.757-3.8q0.006-10.98,0-21.95a3.983,3.983,0,0,1,.765-2.73,3.621,3.621,0,0,1,3-1.33c5.126,0.02,10.252.01,15.379,0.01h3.6Zm-0.046,28.79h4.9c4.753,0,9.506.01,14.26,0a2.356,2.356,0,0,0,2.607-2.61c0-.21,0-0.42,0-0.62q0-10.875,0-21.75c0-1.93-.867-2.81-2.794-2.81H608.592c-1.885,0-2.762.89-2.762,2.78q0,11.115,0,22.24c0,1.89.878,2.78,2.761,2.78Q618.046,3991.96,627.5,3991.95Zm-10.022-10.31v-7.98c1.13,0,2.2-.03,3.266.02a0.838,0.838,0,0,1,.461.48c0.747,1.59,1.471,3.19,2.2,4.78,0.093,0.2.194,0.4,0.347,0.72,0.386-.87.726-1.63,1.062-2.4,0.458-1.04.928-2.07,1.36-3.12a0.651,0.651,0,0,1,.73-0.49c0.926,0.02,1.853,0,2.828,0v8.78h-1.66c-0.437,0-.341-0.33-0.342-0.58-0.007-1.75,0-3.51-.006-5.27a1.267,1.267,0,0,0-.129-0.65c-0.09.19-.185,0.37-0.269,0.56-0.8,1.82-1.6,3.63-2.373,5.45a0.79,0.79,0,0,1-.852.53c-1.41-.01-1.41,0-1.973-1.27q-1.093-2.46-2.188-4.92a1,1,0,0,0-.333-0.44v6.63a29.919,29.919,0,0,0-3,.02,1.454,1.454,0,0,1-1.871-1.23,0.88,0.88,0,0,0-1.079-.72c-1.072.06-2.15,0.03-3.224,0.01a0.651,0.651,0,0,0-.732.48c-0.556,1.44-.57,1.44-2.094,1.41h-0.679c0.1-.26.153-0.43,0.224-0.6,1.1-2.55,2.212-5.11,3.3-7.67a0.7,0.7,0,0,1,.774-0.53,16.4,16.4,0,0,0,1.983,0,0.735,0.735,0,0,1,.82.56c0.97,2.25,1.967,4.5,2.956,6.74,0.106,0.24.222,0.48,0.334,0.72C617.375,3981.65,617.427,3981.65,617.479,3981.64Zm-5.278-6.43c-0.519,1.25-.972,2.33-1.444,3.47h2.885C613.17,3977.54,612.723,3976.46,612.2,3975.21Zm19.608-1.56h2.459c1.859,0,3.719-.01,5.577.02a1.475,1.475,0,0,1,.883.4c0.776,0.8,1.5,1.65,2.275,2.52,0.783-.85,1.553-1.66,2.288-2.49a1.142,1.142,0,0,1,1.012-.45c0.569,0.03,1.143,0,1.876,0-0.432.5-.76,0.88-1.093,1.26-0.778.88-1.533,1.79-2.349,2.63a0.639,0.639,0,0,0,.018,1.06c1.1,1.23,2.166,2.49,3.344,3.85-0.889,0-1.644.02-2.4-.02a0.813,0.813,0,0,1-.426-0.32c-0.76-.82-1.511-1.64-2.315-2.51-0.77.82-1.527,1.6-2.253,2.42a1.25,1.25,0,0,1-1.009.46c-2.438-.02-4.875-0.01-7.313-0.02-0.182,0-.364-0.02-0.578-0.03v-8.78Zm9.841,4.45c-0.793-.86-1.518-1.68-2.278-2.46a0.946,0.946,0,0,0-.608-0.19c-1.114-.01-2.229-0.01-3.344-0.01H633.9v1.67h0.638c1.176,0.01,2.353-.01,3.529.02a0.618,0.618,0,0,1,.473.29,14.142,14.142,0,0,1,.022,1.53h-4.668v1.74a1,1,0,0,0,.258.06q2.322,0.015,4.644,0a0.733,0.733,0,0,0,.486-0.2C640.064,3979.76,640.83,3978.95,641.65,3978.1Z" transform="translate(-604.813 -3963.13)"/>
</svg>
