<svg xmlns="http://www.w3.org/2000/svg" width="31.687" height="28.875" viewBox="0 0 31.687 28.875">
  <defs>
    <style>
      .cls-1 {
        fill: #fff;
        fill-rule: evenodd;
      }
    </style>
  </defs>
  <path id="basket" class="cls-1" d="M536.247,67.983q-0.5,1.51-1,3.022-1.628,4.915-3.252,9.83a1.029,1.029,0,0,1-1.108.786q-7.506,0-15.013-.006a0.249,0.249,0,0,0-.282.2c-0.246.691-.506,1.376-0.761,2.065-0.022.059-.041,0.118-0.071,0.2h16.164a0.853,0.853,0,0,1,.894.612,0.828,0.828,0,0,1-.832,1.034c-0.3.006-.592,0-0.927,0a2.909,2.909,0,0,1-.678,4.477,3.1,3.1,0,0,1-3.876-.547,2.894,2.894,0,0,1-.015-3.914H518.9a2.925,2.925,0,0,1-.3,4.174,3.124,3.124,0,0,1-3.98.026,2.826,2.826,0,0,1-1.067-2.036,2.866,2.866,0,0,1,.766-2.181c-0.279,0-.519,0-0.758,0a0.822,0.822,0,0,1-.852-0.922,1.216,1.216,0,0,1,.076-0.275q0.505-1.368,1.015-2.734c0.018-.049.032-0.1,0.055-0.171-0.162,0-.31,0-0.458,0a0.991,0.991,0,0,1-1.02-.82c-0.282-1.454-.555-2.91-0.831-4.364q-0.607-3.2-1.214-6.4-0.439-2.313-.876-4.63a0.233,0.233,0,0,0-.172-0.2c-1.285-.486-2.565-0.984-3.855-1.459a1.232,1.232,0,0,1-.865-0.838v-0.35a0.086,0.086,0,0,0,.022-0.022,1.023,1.023,0,0,1,1.462-.678c1.52,0.577,3.038,1.161,4.559,1.735a1.079,1.079,0,0,1,.736.868q0.7,3.707,1.4,7.415,0.725,3.824,1.449,7.648a0.116,0.116,0,0,0,.145.122,0.712,0.712,0,0,1,.1,0q7.8,0,15.609,0a0.232,0.232,0,0,0,.268-0.186q1.734-5.273,3.478-10.541c0.016-.05.029-0.1,0.049-0.167-0.309-.013-0.6-0.029-0.9-0.042q-3.366-.142-6.731-0.281l-4.972-.2q-2.76-.113-5.52-0.23a2,2,0,0,1-.431-0.053,0.973,0.973,0,0,1,.252-1.916c0.711,0.013,1.421.049,2.131,0.077,1.146,0.047,2.292.1,3.438,0.147q2.938,0.125,5.876.248,2.856,0.119,5.714.234c0.823,0.034,1.646.072,2.469,0.1a1.062,1.062,0,0,1,1.07.822v0.318Zm-9.824,19.71a1.356,1.356,0,1,0,1.362-1.311A1.346,1.346,0,0,0,526.423,87.693Zm-8.471.016a1.355,1.355,0,1,0-1.355,1.3A1.339,1.339,0,0,0,517.952,87.709Z" transform="translate(-504.563 -61.781)"/>
</svg>
