<svg xmlns="http://www.w3.org/2000/svg" width="25.94" height="18.688" viewBox="0 0 25.94 18.688">
  <defs>
    <style>
      .cls-1 {
        fill: #61900b;
        fill-rule: evenodd;
      }
    </style>
  </defs>
  <path id="delivery-2" class="cls-1" d="M1335,842.816V857.05a0.219,0.219,0,0,1,.02.022,0.993,0.993,0,0,0,1.08.821h1.88a3.537,3.537,0,0,1,3.39-3.039,3.453,3.453,0,0,1,2.18.668,3.582,3.582,0,0,1,1.44,2.371h3.9a1,1,0,0,0,1.07-1.068V843.057a1.021,1.021,0,0,0-.03-0.3,0.986,0.986,0,0,0-1.04-.771h-12.81c-0.05,0-.1,0-0.16,0a0.97,0.97,0,0,0-.87.692C1335.03,842.727,1335.02,842.772,1335,842.816Zm25.93,8.89a7.425,7.425,0,0,0-.29-0.937,5.989,5.989,0,0,0-.57-0.978c-0.72-.977-1.45-1.942-2.19-2.905a5.325,5.325,0,0,0-.56-0.611,1.165,1.165,0,0,0-.82-0.311c-1.52,0-3.04-.005-4.55,0a0.98,0.98,0,0,0-.99,1.013v9.866a0.993,0.993,0,0,0,.76,1.014,1.825,1.825,0,0,0,.23.034,3.522,3.522,0,0,1,1.43-2.364,3.392,3.392,0,0,1,1.93-.671,3.428,3.428,0,0,1,2.4.823,3.562,3.562,0,0,1,1.24,2.2c0.38,0,.75.026,1.12-0.007a0.953,0.953,0,0,0,.84-0.764c0-.02.02-0.04,0.02-0.06v-5.344Zm-6.97.212v-3.969h0.15c0.71,0,1.41.01,2.12,0a0.682,0.682,0,0,1,.59.307c0.68,0.928,1.35,1.859,2.02,2.792a4.161,4.161,0,0,1,.33.543,2.421,2.421,0,0,1,.11.331h-5.32Zm-12.47,8.768a2.3,2.3,0,1,0-2.31-2.284A2.3,2.3,0,0,0,1341.49,860.686Zm11.65-2.291a2.31,2.31,0,1,0,2.29-2.3A2.3,2.3,0,0,0,1353.14,858.4Z" transform="translate(-1335 -842)"/>
</svg>
