<svg xmlns="http://www.w3.org/2000/svg" width="16" height="12" viewBox="0 0 16 12">
  <defs>
    <style>
      .cls-1 {
        fill: #201508;
        fill-rule: evenodd;
      }
    </style>
  </defs>
  <path id="e-mail" class="cls-1" d="M629,22.17V11.688l-5.458,5.136Zm-16-10.7c0,0.006,0,.012,0,0.018v10.6l5.451-5.34Zm9,5.547,6.5-6.112c-0.013,0-.024-0.007-0.038-0.007H613.722l6.3,6.1A1.408,1.408,0,0,0,621.993,17.02Zm0.577,0.715a2.239,2.239,0,0,1-3.135-.025l-0.331-.32-5.619,5.5a0.465,0.465,0,0,0,.057.013h14.9l-5.569-5.457Z" transform="translate(-613 -10.906)"/>
</svg>
