<svg xmlns="http://www.w3.org/2000/svg" width="21.656" height="24.188" viewBox="0 0 21.656 24.188">
  <defs>
    <style>
      .cls-1 {
        fill: #fff;
        fill-rule: evenodd;
      }
    </style>
  </defs>
  <path id="for-invalids" class="cls-1" d="M32.66,510.047c-0.017.054-.031,0.108-0.051,0.16a1.216,1.216,0,0,1-.409.524,1.477,1.477,0,0,1-.508.254c-0.618.168-1.236,0.335-1.855,0.5a1.409,1.409,0,0,1-.7,0,1.638,1.638,0,0,1-.278-0.08,1.087,1.087,0,0,1-.609-0.72c-0.086-.285-0.157-0.576-0.234-0.864l-0.819-3.072c-0.007-.026-0.015-0.052-0.025-0.086H27.04q-3.435,0-6.87,0a3.6,3.6,0,0,1-.958-0.132,1.29,1.29,0,0,1-.953-1.259q0-2.4,0-4.8c0-.8-0.008-1.592,0-2.388a1.229,1.229,0,0,1,.749-1.168,1.287,1.287,0,0,1,1.835,1.156c0,0.359,0,.719,0,1.078,0,0.037,0,.073,0,0.121,0.049,0,.092,0,0.134,0h4.5a1.784,1.784,0,0,1,.668.106,1.224,1.224,0,0,1,.436.279,0.76,0.76,0,0,1,.23.562c0,0.091,0,.182,0,0.272a0.775,0.775,0,0,1-.288.535,1.337,1.337,0,0,1-.706.307,2.561,2.561,0,0,1-.339.021H20.853v3.206a0.566,0.566,0,0,0,.063.012c0.03,0,.06,0,0.09,0h6.159a2.686,2.686,0,0,1,.924.147,1.812,1.812,0,0,1,.634.394,1.2,1.2,0,0,1,.336.575q0.309,1.156.617,2.313,0.159,0.6.319,1.2c0.006,0.022.014,0.044,0.024,0.075,0.163-.044.323-0.088,0.483-0.13,0.258-.067.514-0.144,0.775-0.2a1.323,1.323,0,0,1,.859.107,0.932,0.932,0,0,1,.474.484c0.022,0.052.034,0.108,0.051,0.162v0.342ZM19.781,491L20,491.036a2.59,2.59,0,1,1-.919.009c0.094-.018.189-0.03,0.284-0.045h0.421ZM11,507.131a8.107,8.107,0,0,1,2.861-6.176,7.737,7.737,0,0,1,2.438-1.419,1.04,1.04,0,0,1,.736,1.945,6.3,6.3,0,0,0-1.038.494,5.972,5.972,0,0,0-.66,9.791,6.068,6.068,0,0,0,2.577,1.213,6.19,6.19,0,0,0,1.463.12,7.257,7.257,0,0,0,6.042-3.78c0.026-.047.051-0.1,0.079-0.141a1.036,1.036,0,0,1,1.914.628,1.078,1.078,0,0,1-.13.43,9.431,9.431,0,0,1-6.015,4.694,9.831,9.831,0,0,1-1.61.244,7.828,7.828,0,0,1-1.369-.031,8.038,8.038,0,0,1-3.861-1.462,7.937,7.937,0,0,1-2.761-3.407,7.848,7.848,0,0,1-.6-2.289C11.035,507.691,11.019,507.4,11,507.131Z" transform="translate(-11 -491)"/>
</svg>
