<?xml version="1.0" encoding="utf-8"?>
<!-- Generator: Adobe Illustrator 23.0.3, SVG Export Plug-In . SVG Version: 6.00 Build 0)  -->
<svg version="1.1" id="Layer_1" xmlns="http://www.w3.org/2000/svg" xmlns:xlink="http://www.w3.org/1999/xlink" x="0px" y="0px"
	 viewBox="0 0 160 98" style="enable-background:new 0 0 160 98;" xml:space="preserve">
<style type="text/css">
	.st0{fill:#FF1D25;}
	.st1{fill:#282827;}
	.st2{fill:#9CCB54;}
	.st3{fill:#FFFFFF;}
	.st4{fill:#282828;}
	.st5{fill:#4C9928;}
	.st6{fill:#58B32D;}
	.st7{fill:#F25500;}
	.st8{fill:#DB0100;}
	.st9{fill:#FC00A6;}
	.st10{fill:#8E30E6;}
	.st11{fill:#2A99F7;}
	.st12{fill:none;stroke:#F25500;stroke-miterlimit:10;}
	.st13{fill:#EEEEEE;}
	.st14{fill:#666666;}
	.st15{fill:#4B4B4B;}
	.st16{fill:#323232;}
	.st17{fill:#F0F0F0;}
	.st18{fill:#B4B4B4;}
	.st19{fill-rule:evenodd;clip-rule:evenodd;fill:#AAAAAA;}
	.st20{fill:#AAAAAA;}
	.st21{fill-rule:evenodd;clip-rule:evenodd;fill:#424242;}
	.st22{fill-rule:evenodd;clip-rule:evenodd;fill:#85F34F;}
	.st23{fill-rule:evenodd;clip-rule:evenodd;fill:#323232;}
	.st24{fill:#717171;}
	.st25{fill:#B32CC3;}
	.st26{fill:#EC8B00;}
	.st27{fill:#8B8B8B;stroke:#8B8B8B;stroke-miterlimit:10;}
	.st28{fill:none;stroke:#666666;stroke-width:2;stroke-miterlimit:10;}
	.st29{clip-path:url(#SVGID_2_);fill:#FFFFFF;}
	.st30{clip-path:url(#SVGID_4_);fill:#FFFFFF;}
	.st31{fill:#FFFFFF;stroke:#58B32D;stroke-width:3;stroke-miterlimit:10;}
	.st32{fill:url(#SVGID_5_);}
	.st33{fill-rule:evenodd;clip-rule:evenodd;fill:#58B32D;stroke:#717171;stroke-miterlimit:10;}
	.st34{fill:url(#SVGID_6_);}
	.st35{fill-rule:evenodd;clip-rule:evenodd;fill:#FF0000;stroke:#717171;stroke-miterlimit:10;}
	.st36{fill:url(#SVGID_7_);}
	.st37{fill-rule:evenodd;clip-rule:evenodd;fill:#8E30E6;stroke:#717171;stroke-miterlimit:10;}
	.st38{fill:url(#SVGID_8_);}
	.st39{fill-rule:evenodd;clip-rule:evenodd;fill:#1119B7;stroke:#717171;stroke-miterlimit:10;}
	.st40{fill:url(#SVGID_9_);}
	.st41{fill-rule:evenodd;clip-rule:evenodd;fill:#2A99F7;stroke:#717171;stroke-miterlimit:10;}
	.st42{fill:url(#SVGID_10_);}
	.st43{fill-rule:evenodd;clip-rule:evenodd;fill:#F7931E;stroke:#717171;stroke-miterlimit:10;}
	.st44{fill-rule:evenodd;clip-rule:evenodd;fill:#58B32D;}
	.st45{fill-rule:evenodd;clip-rule:evenodd;fill:#FF0000;}
	.st46{fill-rule:evenodd;clip-rule:evenodd;fill:#8E30E6;}
	.st47{fill-rule:evenodd;clip-rule:evenodd;fill:#1119B7;}
	.st48{fill-rule:evenodd;clip-rule:evenodd;fill:#2A99F7;}
	.st49{fill-rule:evenodd;clip-rule:evenodd;fill:#F7931E;}
	.st50{fill-rule:evenodd;clip-rule:evenodd;fill:#4D4D4D;}
	.st51{fill:none;stroke:#333333;stroke-width:3;stroke-linecap:round;stroke-miterlimit:10;}
	.st52{fill:none;stroke:#8B8B8B;stroke-width:2;stroke-linecap:round;stroke-miterlimit:10;}
	.st53{fill:#8B8B8B;}
	.st54{fill:#999999;}
	.st55{fill:#282D33;}
	.st56{fill:#191900;}
	.st57{fill:#FFFF00;}
</style>
<g>
	<g>
		<path class="st3" d="M34.46,95.3H22.36V66.06c0-1.64-0.37-2.8-1.09-3.46c-0.73-0.67-1.99-1-3.79-1H4.74c-0.96,0-1.86-0.9-2.7-2.7
			c-0.73-1.51-1.09-2.74-1.09-3.68h22.11c7.59,0,11.39,4.01,11.39,12.02V95.3z M14.3,95.3H2.21V73.89c0-0.6,1.81-1.5,5.42-2.7
			c3.06-1.04,5.29-1.67,6.68-1.88V95.3z"/>
		<path class="st3" d="M101.11,73.5c0,4.62-0.74,7.93-2.23,9.94c-1.72,2.32-4.85,3.65-9.39,3.99l-1.33,0.12
			c1.23,0.94,2.77,1.41,4.62,1.41h4.58c5.38,0,8.06-3.73,8.06-11.19V59.8c0-0.57,1.79-1.46,5.36-2.66c3.08-1.04,5.31-1.68,6.69-1.92
			v20.2c0,10.67-3.94,17.31-11.82,19.92c-1.72,0.57-4.97,0.86-9.75,0.86c-5.87,0-9.68-0.29-11.43-0.86
			c-7.85-2.58-11.78-9.22-11.78-19.92v-20.2c1.36,0.23,3.57,0.87,6.65,1.92c3.6,1.2,5.4,2.09,5.4,2.66v17.97
			c0,2.43,0.3,4.48,0.9,6.15c1.49-0.63,2.47-1.53,2.94-2.7c0.31-0.78,0.47-2.05,0.47-3.8V60.58c0-0.57,1.79-1.47,5.36-2.7
			c3.08-1.02,5.31-1.64,6.69-1.88V73.5z"/>
		<path class="st3" d="M158.26,95.3h-12.09V66.06c0-1.64-0.37-2.8-1.09-3.46c-0.73-0.67-1.99-1-3.79-1h-12.74
			c-0.96,0-1.86-0.9-2.7-2.7c-0.73-1.51-1.09-2.74-1.09-3.68h22.11c7.59,0,11.39,4.01,11.39,12.02V95.3z M138.1,95.3h-12.09V73.89
			c0-0.6,1.81-1.5,5.42-2.7c3.06-1.04,5.29-1.67,6.67-1.88V95.3z"/>
	</g>
</g>
<path class="st2" d="M14.83,0.26c0,0,20.41,16.28,30.38,34.09s11.05,31.94,11.05,31.94l-8.67,29.42c0,0-4.25-29.74-9.45-47.06
	C32.8,30.84,14.83,0.26,14.83,0.26z"/>
<path class="st3" d="M88.26,17.23c0,0-16.3,3.31-31,32.17C47.63,68.29,45.1,80.85,45.1,80.85l0.99,14.75l14.25,0
	c0,0,0.27-2.73,1.31-11.28C69.6,29.1,88.26,17.23,88.26,17.23z"/>
</svg>
