<svg xmlns="http://www.w3.org/2000/svg" width="11.97" height="16" viewBox="0 0 11.97 16">
  <defs>
    <style>
      .cls-1 {
        fill: #fff;
        fill-rule: evenodd;
      }
    </style>
  </defs>
  <path id="marker" class="cls-1" d="M1123.8,3905.96a6.094,6.094,0,0,0-6,6.17,11.112,11.112,0,0,0,2.86,7.11,15.378,15.378,0,0,0,2.84,2.64,0.529,0.529,0,0,0,.3.09,0.521,0.521,0,0,0,.29-0.09,15.378,15.378,0,0,0,2.84-2.64,11.112,11.112,0,0,0,2.86-7.11A6.092,6.092,0,0,0,1123.8,3905.96Zm0,8.46a2.371,2.371,0,1,1,2.3-2.37A2.337,2.337,0,0,1,1123.8,3914.42Z" transform="translate(-1117.81 -3905.97)"/>
</svg>
