<svg xmlns="http://www.w3.org/2000/svg" width="50" height="27.5" viewBox="0 0 50 27.5">
  <defs>
    <style>
      .cls-1 {
        fill: #fff;
        fill-rule: evenodd;
      }
    </style>
  </defs>
  <path id="Mastercard" class="cls-1" d="M479.263,3963.31a15.386,15.386,0,0,0-9.326,3.09,14.718,14.718,0,0,1,4.226,6.4h-1.23a13.625,13.625,0,0,0-3.885-5.68,13.594,13.594,0,0,0-3.86,5.67h-1.231a14.716,14.716,0,0,1,4.183-6.38,15.432,15.432,0,0,0-9.285-3.1c-8.177,0-14.806,6.16-14.806,13.76s6.629,13.76,14.806,13.76a15.432,15.432,0,0,0,9.285-3.1,14.737,14.737,0,0,1-4.183-6.38h1.231a13.689,13.689,0,0,0,3.86,5.68,13.657,13.657,0,0,0,3.885-5.69h1.23a14.718,14.718,0,0,1-4.226,6.4,15.386,15.386,0,0,0,9.326,3.09c8.177,0,14.806-6.16,14.806-13.76S487.44,3963.31,479.263,3963.31ZM452.3,3980.3h-1.547l0.879-4.33-2.082,4.33h-1.413l-0.4-4.44-0.916,4.44h-1.49l1.28-6.14H449l0.286,3.72,1.815-3.72h2.444l-1.241,6.14h0Zm3.7,0-0.191-.29a2.041,2.041,0,0,1-1.241.31,1.4,1.4,0,0,1-1.566-1.55c0.42-2.13,3.093-1.74,3.475-1.77,0.172-.77-0.4-0.69-0.916-0.71a15.767,15.767,0,0,0-1.853.16l0.229-1.1h0a10.968,10.968,0,0,1,1.948-.18c2.5,0,2.254,1.67,2.1,2.36l-0.592,2.77h-1.394Zm6.054-1.44c-0.248,1.53-2.024,1.44-2.387,1.44a6.426,6.426,0,0,1-1.757-.18l0.21-1.05a6.4,6.4,0,0,0,1.967.13,0.4,0.4,0,0,0,.191-0.77c-0.305-.14-0.63-0.35-1.2-0.58a1.108,1.108,0,0,1-.516-1.47c0.274-1.23,2.062-1.21,2.273-1.21a3.942,3.942,0,0,1,1.47.19l-0.343,1.03a5.742,5.742,0,0,0-1.471-.07c-0.554.14-.325,0.62-0.019,0.75a7.776,7.776,0,0,1,1.069.55A1.08,1.08,0,0,1,462.06,3978.86Zm2.578,1.21a2.3,2.3,0,0,1-1.108.25,1.183,1.183,0,0,1-1.184-1.58l1.032-4.83h1.489l-0.306,1.35h0.8l-0.267,1.1h-0.764l-0.42,2.06c-0.077.39-.038,0.74,0.821,0.62Zm5.2-2.04h-3.247c-0.171,1.15.783,1.11,1.375,1.11a12.2,12.2,0,0,0,1.681-.12l-0.229,1.05a5.844,5.844,0,0,1-1.91.23,2.268,2.268,0,0,1-2.483-2.58,2.746,2.746,0,0,1,2.769-2.53c2.617,0,2.216,2.02,2.044,2.84h0Zm1.99-.04-0.458,2.31h-1.49l1.013-5.04h1.279l0.134,0.5a1.848,1.848,0,0,1,1.413-.5l-0.382,1.33C472.97,3976.59,472.262,3976.48,471.823,3977.99Zm5.668,0.75,0.439,1.24a4.289,4.289,0,0,1-1.814.32c-1.547,0-3.228-1.28-2.464-3.87a3.545,3.545,0,0,1,3.362-2.57,2.543,2.543,0,0,1,2.043.81l-0.974.91a1.959,1.959,0,0,0-1.146-.25,2,2,0,0,0-1.814,1.69C474.875,3978.49,475.963,3979.21,477.491,3978.74Zm3.724,1.56-0.191-.29a2.04,2.04,0,0,1-1.242.31,1.4,1.4,0,0,1-1.565-1.55c0.42-2.13,3.093-1.74,3.475-1.77,0.172-.77-0.4-0.69-0.916-0.71a15.767,15.767,0,0,0-1.853.16l0.229-1.1h0a10.961,10.961,0,0,1,1.948-.18c2.5,0,2.254,1.67,2.1,2.36l-0.592,2.77h-1.394Zm3.941-2.34-0.463,2.33h-1.5l1.022-5.09H485.5l0.136,0.51a1.834,1.834,0,0,1,1.427-.51l-0.4,1.33C486.294,3976.53,485.6,3976.44,485.156,3977.96Zm4.691,2.34-0.192-.41a2.721,2.721,0,0,1-1.3.41c-1.069,0-2.051-1.41-1.565-2.95,0.725-2.3,2.005-2.16,2.826-2.16a1.613,1.613,0,0,1,1.165.6h0l0.4-1.95h1.567l-1.3,6.46h-1.6Zm-23.165-3.2h1.852a0.668,0.668,0,0,0-.668-0.92A1.123,1.123,0,0,0,466.682,3977.1Zm-10.447.93a1.76,1.76,0,0,0-1.28.12c-0.477.3-.611,0.83-0.114,1.01a1.036,1.036,0,0,0,1.28-.58l0.114-.55h0Zm34.013-.16a1.6,1.6,0,0,0-.095-1.25c-0.458-.56-1.512-0.11-1.834,1a0.923,0.923,0,0,0,.764,1.28,1.345,1.345,0,0,0,1.165-1.03h0Zm-8.8.16a1.757,1.757,0,0,0-1.279.12c-0.478.3-.612,0.83-0.115,1.01a1.033,1.033,0,0,0,1.279-.58l0.115-.55h0Z" transform="translate(-444.063 -3963.31)"/>
</svg>
