<svg xmlns="http://www.w3.org/2000/svg" width="76.657" height="22.4" viewBox="0 0 76.657 22.4">
  <defs>
    <style>
      .cls-1 {
        fill: #fff;
        fill-rule: evenodd;
      }
    </style>
  </defs>
  <path id="Paypal" class="cls-1" d="M558.663,3966.72H561.7a7.1,7.1,0,0,1,2.664.48,4.356,4.356,0,0,1,2.746,3.08,5.977,5.977,0,0,1,.021,2.83,6.477,6.477,0,0,1-1.8,3.29,5.381,5.381,0,0,1-2.366,1.38,4.972,4.972,0,0,1-1.266.13c-1.362.01-2.723,0-4.084-.02a0.325,0.325,0,0,0-.383.35q-0.345,2.175-.7,4.35c-0.013.08-.043,0.16-0.058,0.24-0.116.62-.116,0.63-0.731,0.63-1.309.02-2.617,0.03-3.926,0.05-0.24.01-.294-0.03-0.251-0.29,0.147-.89.346-1.76,0.535-2.63,0.172-.8.335-1.61,0.5-2.41s0.359-1.6.5-2.41c0.161-.91.361-1.81,0.543-2.72,0.15-.74.33-1.48,0.482-2.22,0.184-.9.408-1.8,0.552-2.71,0.06-.38.189-0.74,0.22-1.12a0.348,0.348,0,0,1,.428-0.35c1.108,0.02,2.216.01,3.324,0.01v0.06Zm0.367,8.18a9.782,9.782,0,0,0,1.326-.05,2.424,2.424,0,0,0,2.223-1.65,5.221,5.221,0,0,0,.205-0.93,1.419,1.419,0,0,0-1.174-1.79,10.1,10.1,0,0,0-2.515-.21c-0.172,0-.177.11-0.2,0.23-0.283,1.38-.556,2.77-0.852,4.15-0.053.25,0.039,0.26,0.227,0.26C558.523,3974.9,558.777,3974.9,559.03,3974.9Zm-39.9,3c-0.823,0-1.647.01-2.47-.01a0.274,0.274,0,0,0-.331.27c-0.219,1.55-.5,3.09-0.758,4.64-0.109.65-.1,0.65-0.76,0.66-1.3.02-2.6,0.03-3.894,0.06-0.231,0-.332-0.03-0.277-0.29,0.1-.46.172-0.92,0.261-1.38,0.1-.5.2-1,0.312-1.5s0.194-1,.323-1.5c0.124-.47.181-0.96,0.305-1.44,0.087-.33.131-0.68,0.2-1.02,0.1-.5.2-1,0.311-1.49s0.2-1.01.322-1.5c0.125-.51.182-1.03,0.308-1.53,0.077-.31.127-0.63,0.2-0.94,0.111-.49.206-0.99,0.313-1.49,0.1-.46.188-0.92,0.291-1.38,0.077-.34.145-0.68,0.2-1.02a0.358,0.358,0,0,1,.4-0.39c2.184,0.04,4.37.03,6.553,0.09a6.167,6.167,0,0,1,3.419.94,4.527,4.527,0,0,1,1.984,3.46,6.37,6.37,0,0,1-.8,3.79,5.064,5.064,0,0,1-4.762,2.98c-0.548.03-1.1,0.01-1.646,0.01v-0.02Zm-1-3c0.4,0,.8,0,1.2-0.04a2.508,2.508,0,0,0,2.492-2.3c0.23-1.25-.145-1.88-1.311-2.13a11.377,11.377,0,0,0-2.332-.16,0.186,0.186,0,0,0-.2.19c-0.287,1.41-.576,2.83-0.87,4.24-0.034.17,0.014,0.21,0.169,0.21C517.565,3974.9,517.851,3974.9,518.135,3974.9Zm26.678,3.04c0.365-.77.8-1.48,1.172-2.23,0.487-.99,1.018-1.95,1.525-2.92,0.342-.66.675-1.33,1.012-1.99a0.543,0.543,0,0,1,.55-0.36c1.33,0.02,2.66.01,3.989,0,0.246,0,.31.01,0.165,0.29-0.69,1.33-1.392,2.64-2.1,3.96q-1.289,2.385-2.565,4.77c-0.749,1.41-1.509,2.81-2.241,4.22-0.489.95-1.011,1.88-1.521,2.82-0.427.78-.834,1.58-1.245,2.37a0.3,0.3,0,0,1-.28.2c-1.688-.01-3.375,0-5.1,0,0.9-1.74,1.789-3.45,2.667-5.17,0.123-.23.214-0.49,0.367-0.72a0.623,0.623,0,0,0-.046-0.42c-0.053-.53-0.124-1.07-0.2-1.59-0.067-.48-0.137-0.97-0.189-1.45s-0.147-.96-0.2-1.44-0.121-.96-0.183-1.44-0.125-.97-0.192-1.45-0.135-.98-0.2-1.47c-0.061-.47-0.127-0.94-0.187-1.41a11.143,11.143,0,0,0-.212-1.5,1.486,1.486,0,0,1-.034-0.31c-0.007-.19.074-0.25,0.266-0.25,1.425,0.01,2.85.02,4.275,0,0.251,0,.258.12,0.269,0.31q0.194,3.435.4,6.87C544.79,3977.74,544.8,3977.84,544.813,3977.94Zm-12.843,4.41a8.493,8.493,0,0,1-1.829,1.03,5.137,5.137,0,0,1-2.458.25,2.906,2.906,0,0,1-2.286-1.6,4.662,4.662,0,0,1-.464-2.3,3.731,3.731,0,0,1,1.274-2.87,5.987,5.987,0,0,1,3.1-1.44,21.3,21.3,0,0,1,4.069-.18,0.33,0.33,0,0,0,.373-0.25,0.942,0.942,0,0,0-.44-1.38,3.546,3.546,0,0,0-1.209-.27,7.66,7.66,0,0,0-1.645.2l-1.653.42c-0.341.08-.664,0.23-1.019,0.28-0.138.01-.172-0.02-0.17-0.14q0.031-1.425.062-2.85a0.171,0.171,0,0,1,.164-0.19,18.471,18.471,0,0,1,5.622-.77,6.145,6.145,0,0,1,3.75,1.39,3.026,3.026,0,0,1,1.006,2.48,11.927,11.927,0,0,1-.3,2.2c-0.264,1.3-.523,2.59-0.839,3.87-0.172.7-.3,1.41-0.455,2.11-0.07.31-.1,0.63-0.15,0.95a0.222,0.222,0,0,1-.253.24c-1.372,0-2.743-.01-4.114,0-0.177,0-.217-0.07-0.2-0.23C531.931,3983.01,531.946,3982.72,531.97,3982.35Zm-1.4-1.41a2,2,0,0,0,2.2-1.37,5.493,5.493,0,0,0,.22-1.43c0-.13-0.014-0.2-0.164-0.2a7.174,7.174,0,0,0-2.522.31,1.517,1.517,0,0,0-1.026,1.81,0.881,0.881,0,0,0,.759.82A2.04,2.04,0,0,0,530.572,3980.94Zm42.416,1.41a8.824,8.824,0,0,1-1.274.79,4.846,4.846,0,0,1-3.374.44,2.931,2.931,0,0,1-2.152-2.11,5.446,5.446,0,0,1-.121-2.77,3.368,3.368,0,0,1,.918-1.59,5.978,5.978,0,0,1,3.763-1.75,24.045,24.045,0,0,1,3.7-.12c0.223,0,.332-0.05.339-0.29,0.006-.19.058-0.38,0.068-0.57a0.694,0.694,0,0,0-.546-0.81,5.113,5.113,0,0,0-2.716-.09c-0.932.18-1.825,0.51-2.742,0.74a0.568,0.568,0,0,1-.174.03c0-.5,0-0.99,0-1.49,0-.47.024-0.93,0.02-1.4a0.279,0.279,0,0,1,.268-0.33c1.023-.26,2.057-0.49,3.1-0.65a10.9,10.9,0,0,1,2.8-.06,7.255,7.255,0,0,1,2.413.71,3.349,3.349,0,0,1,1.9,3.9c-0.084.62-.209,1.23-0.3,1.84-0.089.63-.29,1.23-0.423,1.85-0.306,1.41-.668,2.81-0.893,4.25-0.1.65-.115,0.65-0.794,0.65-1.182,0-2.364-.01-3.546,0-0.236,0-.323-0.06-0.291-0.3C572.966,3982.95,572.968,3982.68,572.988,3982.35Zm-1.215-1.41a1.951,1.951,0,0,0,1.956-1.19,5.314,5.314,0,0,0,.29-1.61c0.009-.13-0.015-0.2-0.164-0.2a7.12,7.12,0,0,0-2.552.33,1.443,1.443,0,0,0-.851.71C569.905,3980.09,570.429,3980.94,571.773,3980.94Zm9.8,2.59c-0.664,0-1.329-.01-1.993,0-0.209,0-.251-0.05-0.25-0.27a3.548,3.548,0,0,1,.153-0.82c0.154-.64.277-1.28,0.416-1.92,0.161-.74.34-1.48,0.463-2.22,0.08-.49.239-0.96,0.343-1.44s0.167-.99.291-1.48c0.12-.47.2-0.94,0.3-1.41,0.162-.71.312-1.42,0.456-2.13,0.1-.49.22-0.98,0.32-1.48s0.226-.97.311-1.47,0.206-.98.338-1.46,0.141-.46.64-0.46c1.223-.01,2.447-0.01,3.67-0.02,0.258-.01.326,0.06,0.274,0.32-0.19.93-.382,1.87-0.586,2.8-0.235,1.08-.455,2.16-0.7,3.23-0.205.9-.345,1.81-0.557,2.71-0.152.65-.3,1.29-0.424,1.94-0.148.76-.334,1.5-0.465,2.26-0.153.89-.369,1.77-0.579,2.64-0.162.68-.177,0.68-0.874,0.68h-1.551Z" transform="translate(-510.656 -3966.66)"/>
</svg>
