<svg xmlns="http://www.w3.org/2000/svg" width="18" height="20" viewBox="0 0 18 20">
  <defs>
    <style>
      .cls-1 {
        fill: #201508;
        fill-rule: evenodd;
      }
    </style>
  </defs>
  <path id="personal_accaunt" data-name="personal accaunt" class="cls-1" d="M496.816,17v0.956a1.169,1.169,0,0,0-.017.119,10.4,10.4,0,0,1-.392,2.365,9.86,9.86,0,0,1-4.082,5.673,8.06,8.06,0,0,1-3.383,1.276c-0.234.033-.469,0.055-0.7,0.082h-0.86a0.617,0.617,0,0,0-.087-0.019,7.914,7.914,0,0,1-2.57-.6,9.287,9.287,0,0,1-4.647-4.315,10.428,10.428,0,0,1-1.2-4c-0.019-.195-0.036-0.389-0.054-0.583V16.982c0.006-.04.015-0.079,0.017-0.118a10.605,10.605,0,0,1,.4-2.395A9.934,9.934,0,0,1,482.774,9.2a8.229,8.229,0,0,1,4.069-1.674l0.535-.061h0.88c0.035,0.007.071,0.014,0.107,0.02,0.435,0.065.876,0.1,1.3,0.2a8.757,8.757,0,0,1,5.044,3.381,10.351,10.351,0,0,1,2.029,5.145C496.772,16.475,496.792,16.741,496.816,17Zm-2.7,6.072a9.682,9.682,0,0,0-.684-12.111,7.583,7.583,0,0,0-11.78.65,9.714,9.714,0,0,0-.129,11.46,7.608,7.608,0,0,1,4.584-3.981c-0.021-.018-0.028-0.026-0.036-0.032a3.911,3.911,0,0,1-1.659-4.169A3.713,3.713,0,0,1,486.2,12.32a3.26,3.26,0,0,1,4.175.649,3.905,3.905,0,0,1,1.014,3.181,4.011,4.011,0,0,1-1.671,2.885c-0.023.016-.044,0.035-0.072,0.057A7.158,7.158,0,0,1,494.116,23.077Z" transform="translate(-478.813 -7.469)"/>
</svg>
