<svg xmlns="http://www.w3.org/2000/svg" width="16" height="16" viewBox="0 0 16 16">
  <defs>
    <style>
      .cls-1 {
        fill: #1b1e22;
        fill-rule: evenodd;
      }
    </style>
  </defs>
  <path id="phone" class="cls-1" d="M1526.8,20.2a9.151,9.151,0,0,1-1.65-.342,1.873,1.873,0,0,0-1.88.464l-1.02,1.024a11.767,11.767,0,0,1-4.66-4.667l1.02-1.024a1.871,1.871,0,0,0,.46-1.884,9.27,9.27,0,0,1-.34-1.65,1.871,1.871,0,0,0-1.87-1.664h-2.52a1.891,1.891,0,0,0-1.39.612,1.934,1.934,0,0,0-.49,1.275,1,1,0,0,0,.01.173,15.492,15.492,0,0,0,4.45,9.493,15.606,15.606,0,0,0,4.29,3.032,15.317,15.317,0,0,0,5.2,1.428,1.878,1.878,0,0,0,2.05-1.874V22.07A1.872,1.872,0,0,0,1526.8,20.2Z" transform="translate(-1512.47 -10.469)"/>
</svg>
