<svg xmlns="http://www.w3.org/2000/svg" width="35.531" height="25.37" viewBox="0 0 35.531 25.37">
  <defs>
    <style>
      .cls-1 {
        fill: #fff;
        fill-rule: evenodd;
      }
    </style>
  </defs>
  <path id="Visa" class="cls-1" d="M390.684,3985.59v-15.43c0.017-.07.04-0.15,0.05-0.22a5.432,5.432,0,0,1,5.275-4.75h19.344c1.832,0,3.664,0,5.5.01a5.415,5.415,0,0,1,5.332,5.43c0.023,1.74,0,3.49,0,5.24,0,2.77,0,5.53,0,8.3a9.764,9.764,0,0,1-.131,2.08,5.339,5.339,0,0,1-5.046,4.28c-2.222.04-4.444,0.02-6.665,0.02H402.227c-2.042,0-4.084-.02-6.125,0a5.409,5.409,0,0,1-5.29-4.33C390.768,3986.01,390.727,3985.8,390.684,3985.59Zm32.414-3.49c-0.02-.12-0.034-0.21-0.052-0.3q-0.933-4.62-1.864-9.24a0.2,0.2,0,0,0-.243-0.19h-2.23a0.215,0.215,0,0,0-.233.16c-0.153.38-.322,0.75-0.482,1.12-1.1,2.59-2.2,5.17-3.3,7.76-0.092.22-.18,0.43-0.285,0.69,0.829,0,1.621,0,2.414-.01a0.3,0.3,0,0,0,.163-0.18c0.134-.34.248-0.68,0.385-1.01a0.278,0.278,0,0,1,.2-0.17c0.938-.01,1.876,0,2.815-0.01a0.184,0.184,0,0,1,.2.19c0.059,0.33.133,0.67,0.182,1a0.183,0.183,0,0,0,.219.19c0.27-.01.54,0,0.81,0h1.3Zm-8.271-9.42a6.751,6.751,0,0,0-2.446-.48,4.866,4.866,0,0,0-2.717.76,2.847,2.847,0,0,0,.013,4.58c0.483,0.31,1,.55,1.488.86a2.565,2.565,0,0,1,.672.6,0.669,0.669,0,0,1-.135.98,1.815,1.815,0,0,1-.792.34,4.768,4.768,0,0,1-2.85-.44c-0.044-.02-0.093-0.03-0.146-0.05-0.127.61-.242,1.2-0.377,1.79a0.238,0.238,0,0,0,.176.32,5.888,5.888,0,0,0,2.1.45,4.746,4.746,0,0,0,4.01-1.72,2.4,2.4,0,0,0-.226-3.55,11.664,11.664,0,0,0-1.259-.8c-0.328-.21-0.678-0.37-0.991-0.6a0.753,0.753,0,0,1,.056-1.26,1.459,1.459,0,0,1,.284-0.13,2.746,2.746,0,0,1,2.224.19c0.178,0.09.351,0.2,0.535,0.3C414.577,3974.1,414.7,3973.4,414.827,3972.68Zm-10.876-.31c-0.885,0-1.724,0-2.563.01a0.3,0.3,0,0,0-.178.18c-0.645,1.97-1.283,3.93-1.922,5.9-0.087.26-.176,0.53-0.273,0.83a8.3,8.3,0,0,0-3.587-5.03,0.549,0.549,0,0,0,.02.23c0.183,0.72.367,1.43,0.549,2.15q0.658,2.595,1.311,5.19a0.294,0.294,0,0,0,.35.27c0.682-.02,1.365-0.01,2.048-0.01,0.444,0,.445,0,0.611-0.43q1.388-3.54,2.774-7.1C403.371,3973.85,403.653,3973.13,403.951,3972.37Zm2.006,9.72c0.511-3.24,1.021-6.47,1.534-9.72-0.794,0-1.558.01-2.321,0a0.226,0.226,0,0,0-.274.23c-0.119.83-.254,1.65-0.38,2.47q-0.443,2.895-.882,5.77l-0.189,1.25h2.512Zm-13.2-9.68c0,0.02,0,.03-0.006.05,0.031,0.01.062,0.03,0.093,0.04a12.216,12.216,0,0,1,3.267,1.78,7.068,7.068,0,0,1,2.479,3.17,0.772,0.772,0,0,0,.074.12c-0.259-1.34-.5-2.62-0.758-3.9a1.466,1.466,0,0,0-1.516-1.26h-3.633Zm26.748,2.88c0.233,1.19.466,2.38,0.7,3.59h-2.09q0.672-1.815,1.33-3.6A0.119,0.119,0,0,1,419.5,3975.29Z" transform="translate(-390.688 -3965.19)"/>
</svg>
