<svg xmlns="http://www.w3.org/2000/svg" width="23" height="23" viewBox="0 0 23 23">
  <defs>
    <style>
      .cls-1 {
        fill: #fff;
        fill-rule: evenodd;
      }
    </style>
  </defs>
  <path id="whatsapp" class="cls-1" d="M503,3920.85a11.3,11.3,0,0,0-22.578-.2c-0.006.16-.011,0.32-0.011,0.49a11.109,11.109,0,0,0,1.619,5.79l-2.037,6.01,6.257-1.99A11.306,11.306,0,0,0,503,3921.14C503,3921.04,503,3920.95,503,3920.85Zm-11.292,9.71a9.452,9.452,0,0,1-5.225-1.56l-3.65,1.17,1.185-3.51a9.306,9.306,0,0,1-1.809-5.52,8.859,8.859,0,0,1,.048-0.92,9.5,9.5,0,0,1,18.918.18c0.021,0.25.032,0.49,0.032,0.74A9.468,9.468,0,0,1,491.705,3930.56Zm5.178-7.16c-0.28-.13-1.64-0.8-1.893-0.89a0.427,0.427,0,0,0-.625.14c-0.185.27-.719,0.89-0.878,1.07a0.438,0.438,0,0,1-.6.07,7.651,7.651,0,0,1-2.227-1.37,8.235,8.235,0,0,1-1.539-1.89,0.412,0.412,0,0,1,.122-0.57c0.126-.12.275-0.32,0.417-0.48,0.038-.04.069-0.09,0.1-0.13a2.478,2.478,0,0,0,.174-0.33,0.492,0.492,0,0,0-.021-0.48c-0.068-.13-0.624-1.49-0.857-2.04s-0.46-.45-0.624-0.45-0.343-.03-0.529-0.03a1.037,1.037,0,0,0-.74.34,3.088,3.088,0,0,0-.968,2.3,3.406,3.406,0,0,0,.143.93,6.288,6.288,0,0,0,.989,1.91,11.4,11.4,0,0,0,4.728,4.15c2.819,1.09,2.819.73,3.327,0.68a2.761,2.761,0,0,0,1.867-1.3,2.284,2.284,0,0,0,.164-1.31A1.506,1.506,0,0,0,496.883,3923.4Z" transform="translate(-480 -3909.94)"/>
</svg>
