<svg xmlns="http://www.w3.org/2000/svg" width="23.22" height="17.813" viewBox="0 0 23.22 17.813">
  <defs>
    <style>
      .cls-1 {
        fill: #fff;
        fill-rule: evenodd;
      }
    </style>
  </defs>
  <path id="Ñatalog" class="cls-1" d="M1491.76,138.309v-2.75H1507v2.75h-15.24Zm0,7.106v-2.748H1507v2.748h-15.24ZM1507,128.454v2.736h-15.24v-2.736H1507Zm-18.77,1.793a2.225,2.225,0,1,1-2.23-2.217A2.224,2.224,0,0,1,1488.23,130.247Zm0,13.368a2.225,2.225,0,1,1-2.21-2.229A2.225,2.225,0,0,1,1488.23,143.615Zm-2.22-8.905a2.222,2.222,0,1,1-2.23,2.213A2.214,2.214,0,0,1,1486.01,134.71Z" transform="translate(-1483.78 -128.031)"/>
</svg>
